# xmcd CD database file generated by OrangeCD 6.4
#
# Track frame offsets:
#	150
#	22315
#	46632
#	61447
#	71185
#	94452
#	112695
#	130340
#	146665
#	169212
#	192835
#	215447
#	236012
#	261432
#	283935
#	290657
#	314950
#
# Disc length: 4251 seconds
#
# Revision: 0
# Processed by: cddbd v1.5.2PL0 Copyright (c) Steve Scherf et al.
# Submitted via: OrangeCD 6.4
#
DISCID=1d109911
DTITLE=Eric Clapton and Friends - Songs I Forgot
DYEAR=1995
DGENRE=
TTITLE0=Howlin' Wolf and Friends - Killing Floor
TTITLE1=Howlin' Wolf and Friends - Going Down Slow
TTITLE2=Champion Jack Dupree and Friends - Third Degree
TTITLE3=Champion Jack Dupree and Friends - Shim-Sham-Shimmy
TTITLE4=Martha Valez and Friends - Feel So Bad
TTITLE5=The Band and Friends - All Our Past Times (As Long As I Can See Your Face
TTITLE5=)
TTITLE6=The Band and Friends - Further On Up The Road
TTITLE7=The Band and Friends - Tura Lura Lural (That's An Irish Lullaby)
TTITLE8=Delaney and Bonnie and Friends - Poor Elijah
TTITLE9=Delaney and Bonnie and Friends - I Don't Know Why
TTITLE10=Delaney and Bonnie and Friends - Where There's A Will There's A Way
TTITLE11=Delaney and Bonnie and Friends - My Baby Specializes
TTITLE12=Delaney and Bonnie and Friends - I Don't Want To Discuss It
TTITLE13=Delaney and Bonnie and Friends - That's What My Baby's For
TTITLE14=Delaney and Bonnie and Friends - Coming Home
TTITLE15=Slate 27
TTITLE16=Instrumental
EXTD=
EXTT0=
EXTT1=
EXTT2=
EXTT3=
EXTT4=
EXTT5=
EXTT6=
EXTT7=
EXTT8=
EXTT9=
EXTT10=
EXTT11=
EXTT12=
EXTT13=
EXTT14=
EXTT15=
EXTT16=
PLAYORDER=
